<svg xmlns="http://www.w3.org/2000/svg" width="100%" viewBox="0 0 1000 440" role="img" aria-labelledby="title desc">
<title id="title">Kazbek developer terminal</title><desc id="desc">A terminal-style profile card for Kazbek, a backend-focused full-stack developer.</desc>
<style><![CDATA[text{font-family:ui-monospace,SFMono-Regular,Menlo,Consolas,monospace}.panel{fill:#0a0e10;stroke:#2b3538;stroke-width:2}.muted{fill:#8b9994}.ink{fill:#e8f2ec}.green{fill:#83f0b2}.line{stroke:#263034}.r1{animation:enter .45s .15s both}.r2{animation:enter .45s .42s both}.r3{animation:enter .45s .69s both}.r4{animation:enter .45s .96s both}.r5{animation:enter .45s 1.23s both}.r6{animation:enter .45s 1.5s both}.cursor{animation:blink 1s steps(2,start) infinite}.scan{animation:sweep 6s ease-in-out infinite}@keyframes enter{from{opacity:0;transform:translateX(9px)}to{opacity:1;transform:none}}@keyframes blink{50%{opacity:0}}@keyframes sweep{0%,100%{opacity:.08;transform:translateY(-45px)}50%{opacity:.35;transform:translateY(70px)}}@media(prefers-reduced-motion:reduce){.r1,.r2,.r3,.r4,.r5,.r6,.cursor,.scan{animation:none;opacity:1;transform:none}}]]></style>
<rect class="panel" x="1" y="1" width="998" height="438" rx="16"/><circle cx="29" cy="29" r="6" fill="#83f0b2"/><circle cx="49" cy="29" r="6" fill="#3e4b4e"/><circle cx="69" cy="29" r="6" fill="#3e4b4e"/><text class="muted" x="94" y="34" font-size="14">realkazbek — identity terminal</text><line class="line" x1="1" y1="57" x2="999" y2="57"/>
<g transform="translate(55 93) scale(.92)"><path fill="#080d10" stroke="#4c5c61" stroke-width="3" d="M30 22h136v12h25v27h23v27h15v43h-15v27h-23v28h-25v25H30v-25H5v-28h-23v-27h-15V100h15V73H5V46h25z"/><path fill="#293940" d="M30 35h136v15H30zm-25 12h25v27H5zm161 0h25v27h-25zM-18 101H6v43h-24zm208 0h24v43h-24zM30 199h136v15H30z"/><path fill="#9eb1b5" d="M30 48h136v12H30zM29 157h138v14H29zM6 102h16v42H6zm168 0h16v42h-16z"/><rect x="29" y="75" width="138" height="81" fill="#05090b"/><path class="scan" fill="#83f0b2" d="M32 86h132v4H32z"/><path fill="#080d10" stroke="#4c5c61" stroke-width="3" d="M31 199h135v28h25v54h-25v28h-42v-28H72v28H30v-28H5v-54h26z"/><path fill="#293940" d="M32 200h133v15H32zm-26 27h25v54H6zm160 0h25v54h-25zm-94 54h52v28H72z"/><path fill="#9eb1b5" d="M57 215h83v34H57zm-25 0h17v34H32z"/><path fill="#83f0b2" d="M69 230h58v4H69z"/><path fill="#080d10" stroke="#4c5c61" stroke-width="3" d="M6 281h184v13h42v13H-36v-13H6z"/></g>
<g font-size="18"><text class="green r1" x="390" y="105">kazbek@github:~$ whoami</text><text class="ink r2" x="390" y="143" font-size="29">Kazbek</text><text class="muted r2" x="390" y="171">Backend Engineer / Full-stack Developer</text><line class="line r3" x1="390" y1="195" x2="918" y2="195"/><text class="green r3" x="390" y="228">location</text><text class="ink r3" x="540" y="228">Almaty, Kazakhstan</text><text class="green r4" x="390" y="262">focus</text><text class="ink r4" x="540" y="262">Go + Backend Engineering</text><text class="green r5" x="390" y="296">building</text><text class="ink r5" x="540" y="296">Pixel Lane</text><text class="green r5" x="390" y="330">exploring</text><text class="ink r5" x="540" y="330">Computer Vision · ESP32 · Smart City</text><text class="green r6" x="390" y="381">kazbek@github:~$ </text><text class="ink r6" x="590" y="381">_</text><text class="green cursor" x="603" y="381">▋</text></g><text class="muted" x="55" y="415" font-size="13">pixel unit online · backend mode</text>
</svg>
